<svg width="702" height="702" viewBox="0 0 702 702" fill="none" xmlns="http://www.w3.org/2000/svg">
<path d="M62 239.401H164.927C188.274 239.401 207.991 242.972 224.078 250.113C240.307 257.254 252.621 267.822 261.021 281.819C269.562 295.672 273.833 312.739 273.833 333.018C273.833 347.3 270.915 360.368 265.078 372.222C259.383 383.934 251.127 393.93 240.307 402.214C229.63 410.355 216.818 416.425 201.87 420.423L190.338 424.921H93.6042L93.1772 391.288H166.208C181.015 391.288 193.328 388.717 203.152 383.576C212.974 378.292 220.377 371.223 225.36 362.368C230.342 353.513 232.833 343.73 232.833 333.018C232.833 321.021 230.485 310.525 225.787 301.527C221.088 292.53 213.686 285.603 203.578 280.747C193.612 275.749 180.729 273.249 164.927 273.249H103.214V551.316H62V239.401ZM243.724 551.316L168.13 409.926L211.052 409.712L287.713 548.745V551.316H243.724Z" fill="#6620FF"/>
<mask id="mask0_102_8237" style="mask-type:luminance" maskUnits="userSpaceOnUse" x="299" y="140" width="342" height="423">
<path d="M640.912 140H299.245V562.741H640.912V140Z" fill="white"/>
</mask>
<g mask="url(#mask0_102_8237)">
<path d="M640.626 235.323C639.701 231.296 637.685 227.513 636.793 223.486C631.13 198.043 623.354 173.297 616.381 148.263C613.837 139.137 609.596 137.81 601.863 143.075C578.038 159.27 554.268 175.565 531.29 192.977C530.082 193.804 528.947 194.733 527.897 195.753C524.592 199.304 524.868 201.694 529.152 203.939C532.072 205.466 535.2 206.572 538.239 207.844C545.334 210.798 546.215 212.535 544.276 220.09C543.851 221.881 543.284 223.634 542.58 225.334C537.667 236.617 532.446 247.779 527.787 259.162C516.441 286.884 505.349 314.705 494.158 342.483C493.563 343.392 493.033 344.342 492.571 345.325C484.685 364.928 476.82 384.537 468.977 404.154L448.424 455.593C441.087 436.788 434.291 419.32 427.196 401.101C413.362 431.986 400.848 462.363 388.644 492.917C388.3 493.652 388.122 494.455 388.122 495.267C388.122 496.08 388.3 496.882 388.644 497.618C396.861 516.276 405.039 534.976 413.174 553.715C415.906 560.008 420.367 562.896 427.362 562.764C441.484 562.476 455.605 562.575 469.737 562.664C475.442 562.664 479.111 560.13 481.083 554.92C482.746 550.496 484.222 545.893 486.072 541.491C494.643 521.192 503.553 501.026 511.87 480.649C520.396 459.742 529.616 439.132 538.439 418.358C545.984 400.658 553.077 382.693 560.37 364.839C570.188 341.417 579.991 318.027 589.779 294.671C597.281 276.917 605.003 259.273 612.449 241.473C614.464 236.661 617.108 235.433 621.746 238.022C625.727 240.341 630.185 241.707 634.777 242.015C639.723 242.27 641.728 240.157 640.626 235.323Z" fill="#282828"/>
<path d="M441.273 333.578L457.069 298.012C458.567 294.616 461.012 293.964 464.251 295.424C468.249 297.238 472.193 299.097 476.653 299.726C483.714 300.723 485.995 298.521 484.055 291.497C476.345 263.465 468.634 235.433 460.605 207.424C457.455 196.417 453.996 195.444 444.5 202.003C427.9 213.464 411.257 224.869 394.745 236.462C387.541 241.529 380.536 246.905 373.607 252.336C368.099 256.662 368.485 259.848 374.708 262.757C376.691 263.686 378.762 264.427 380.811 265.235C389.623 268.664 390.57 270.766 387.145 279.836C383.597 289.262 379.952 298.643 376.35 308.057C371.944 317.492 368.639 327.416 364.585 336.974C357.471 353.71 351.258 370.78 344.429 387.616C343.853 388.952 343.577 390.398 343.619 391.851C343.66 393.306 344.02 394.733 344.67 396.034C351.845 412.354 358.927 428.712 365.918 445.106C370.6 456.036 375.161 467.032 380.094 478.768C380.998 476.644 381.559 475.361 382.11 474.067C391.617 451.4 400.836 428.612 410.695 406.101C421.226 382.088 431.418 357.914 441.273 333.578Z" fill="#6620FF"/>
<path d="M365.082 287.481C363.747 286.075 362.129 284.971 360.336 284.24C358.543 283.509 356.617 283.169 354.683 283.245C338.909 283.178 323.136 283.134 307.319 283.444C299.421 283.599 297.57 286.762 300.533 294.173C304.41 303.901 308.427 313.57 312.583 323.179C319.897 340.182 327.355 357.128 335.065 374.817C335.87 373.279 336.343 372.528 336.673 371.72C346.752 347.062 356.655 322.338 367.009 297.803C368.936 293.344 367.88 290.524 365.082 287.481Z" fill="#6620FF"/>
</g>
</svg>
