<svg width="170" height="51" viewBox="0 0 170 51" fill="none" xmlns="http://www.w3.org/2000/svg">
<path d="M3.47986 9.58289H13.4048C15.656 9.58289 17.5573 9.9271 19.1085 10.6155C20.6734 11.3039 21.8608 12.3228 22.6707 13.6722C23.4944 15.0077 23.9062 16.653 23.9062 18.6081C23.9062 19.985 23.6248 21.2447 23.062 22.3875C22.5128 23.5166 21.7167 24.4803 20.6734 25.2789C19.6438 26.0638 18.4085 26.6489 16.967 27.0344L15.855 27.468H6.52734L6.48617 24.2256H13.5283C14.956 24.2256 16.1434 23.9778 17.0906 23.4821C18.0378 22.9727 18.7516 22.2912 19.2321 21.4376C19.7125 20.5838 19.9527 19.6408 19.9527 18.6081C19.9527 17.4515 19.7263 16.4396 19.2732 15.5721C18.8202 14.7047 18.1064 14.037 17.1318 13.5688C16.1708 13.087 14.9285 12.846 13.4048 12.846H7.45394V39.6532H3.47986V9.58289ZM21.0029 39.6532L13.7136 26.0224L17.8525 26.0018L25.2446 39.4053V39.6532H21.0029Z" fill="#6620FF"/>
<mask id="mask0_35_2182" style="mask-type:luminance" maskUnits="userSpaceOnUse" x="26" y="0" width="34" height="41">
<path d="M59.3023 0H26.3566V40.7545H59.3023V0Z" fill="white"/>
</mask>
<g mask="url(#mask0_35_2182)">
<path d="M59.2747 9.1896C59.1855 8.80141 58.9911 8.4367 58.9051 8.04851C58.3591 5.59566 57.6092 3.20999 56.9369 0.796601C56.6915 -0.0832238 56.2826 -0.211198 55.537 0.296434C53.2396 1.85773 50.9475 3.42861 48.7318 5.10721C48.6153 5.18698 48.5059 5.27653 48.4046 5.37489C48.086 5.71723 48.1126 5.94758 48.5257 6.16407C48.8072 6.31124 49.1089 6.41789 49.4019 6.54052C50.086 6.82527 50.171 6.9927 49.984 7.7211C49.943 7.8937 49.8883 8.06274 49.8205 8.2266C49.3467 9.31438 48.8433 10.3904 48.3941 11.4878C47.3 14.1603 46.2305 16.8425 45.1513 19.5204C45.094 19.608 45.0428 19.6996 44.9983 19.7944C44.2379 21.6843 43.4795 23.5747 42.7232 25.4658L40.7413 30.4249C40.0339 28.6119 39.3785 26.928 38.6944 25.1715C37.3604 28.149 36.1538 31.0776 34.977 34.0231C34.9438 34.094 34.9266 34.1714 34.9266 34.2497C34.9266 34.3281 34.9438 34.4054 34.977 34.4764C35.7693 36.275 36.5578 38.0778 37.3423 39.8844C37.6058 40.4911 38.0359 40.7694 38.7104 40.7567C40.0721 40.729 41.4338 40.7385 42.7964 40.7471C43.3466 40.7471 43.7003 40.5028 43.8905 40.0006C44.0509 39.574 44.1932 39.1303 44.3716 38.7059C45.1981 36.749 46.0573 34.8048 46.8592 32.8404C47.6814 30.8248 48.5704 28.8379 49.4212 26.8352C50.1488 25.1288 50.8327 23.3969 51.5359 21.6757C52.4826 19.4177 53.4279 17.1627 54.3717 14.9111C55.0951 13.1995 55.8397 11.4985 56.5578 9.78255C56.752 9.31865 57.007 9.20027 57.4541 9.44982C57.838 9.67337 58.2679 9.80511 58.7107 9.83481C59.1876 9.85934 59.3809 9.65565 59.2747 9.1896Z" fill="#F6F6F6"/>
<path d="M40.0518 18.6619L41.575 15.2332C41.7194 14.9058 41.9552 14.8429 42.2675 14.9836C42.653 15.1585 43.0333 15.3377 43.4634 15.3984C44.1442 15.4945 44.3642 15.2822 44.1772 14.6051C43.4337 11.9026 42.6901 9.20024 41.9159 6.49997C41.6121 5.43885 41.2786 5.345 40.363 5.9774C38.7623 7.08226 37.1575 8.18177 35.5653 9.29941C34.8707 9.78784 34.1951 10.3061 33.527 10.8298C32.9959 11.2468 33.0331 11.5539 33.6332 11.8344C33.8244 11.924 34.0241 11.9954 34.2216 12.0733C35.0714 12.4039 35.1627 12.6065 34.8324 13.4809C34.4903 14.3896 34.1389 15.294 33.7915 16.2015C33.3666 17.1112 33.048 18.0679 32.6571 18.9893C31.971 20.6028 31.372 22.2484 30.7134 23.8715C30.658 24.0002 30.6313 24.1397 30.6354 24.2798C30.6394 24.42 30.674 24.5576 30.7368 24.6831C31.4286 26.2564 32.1115 27.8334 32.7856 29.4138C33.2371 30.4675 33.6768 31.5276 34.1526 32.659C34.2397 32.4543 34.2938 32.3306 34.347 32.2058C35.2636 30.0206 36.1526 27.8237 37.1033 25.6535C38.1187 23.3386 39.1015 21.008 40.0518 18.6619Z" fill="#6620FF"/>
<path d="M32.705 14.218C32.5763 14.0824 32.4203 13.976 32.2474 13.9056C32.0745 13.8351 31.8888 13.8023 31.7023 13.8096C30.1813 13.8031 28.6604 13.7989 27.1351 13.8288C26.3735 13.8437 26.1951 14.1486 26.4808 14.8632C26.8547 15.801 27.242 16.7331 27.6427 17.6595C28.348 19.2986 29.0672 20.9324 29.8106 22.6377C29.8882 22.4894 29.9338 22.417 29.9657 22.3391C30.9376 19.9619 31.8925 17.5784 32.8908 15.2131C33.0767 14.7832 32.9748 14.5113 32.705 14.218Z" fill="#6620FF"/>
</g>
<path d="M73.7161 26.4561H66.0151L65.9739 22.2017H72.4395C73.5788 22.2017 74.5123 22.0571 75.2399 21.768C75.9674 21.4651 76.5096 21.0314 76.8665 20.4669C77.2372 19.8886 77.4225 19.1863 77.4225 18.3602C77.4225 17.424 77.2441 16.6668 76.8872 16.0885C76.5439 15.5102 76.0018 15.0903 75.2605 14.8287C74.5329 14.567 73.5926 14.4363 72.4395 14.4363H68.1566V39.6532H61.9791V9.58289H72.4395C74.1829 9.58289 75.741 9.74811 77.1136 10.0785C78.5001 10.409 79.6738 10.9115 80.6347 11.5862C81.5957 12.2608 82.3301 13.1145 82.838 14.1471C83.3459 15.166 83.5998 16.3776 83.5998 17.782C83.5998 19.0211 83.3185 20.1639 82.7556 21.2104C82.2065 22.2567 81.3349 23.1104 80.1405 23.7713C78.96 24.4322 77.4157 24.797 75.5076 24.8659L73.7161 26.4561ZM73.4485 39.6532H64.3266L66.7357 34.8205H73.4485C74.5329 34.8205 75.4184 34.6483 76.1047 34.3041C76.791 33.9462 77.2989 33.4642 77.6284 32.8585C77.9578 32.2526 78.1225 31.5573 78.1225 30.7725C78.1225 29.8914 77.9716 29.1272 77.6696 28.4801C77.3814 27.833 76.9146 27.3373 76.2694 26.9931C75.6242 26.635 74.7731 26.4561 73.7161 26.4561H67.7653L67.8064 22.2017H75.2192L76.64 23.8745C78.4658 23.847 79.9346 24.1706 81.0465 24.8452C82.1722 25.5061 82.989 26.3666 83.4969 27.4268C84.0185 28.487 84.2793 29.6229 84.2793 30.8344C84.2793 32.7621 83.8606 34.3867 83.0233 35.7085C82.1859 37.0165 80.9573 38.0009 79.3374 38.6618C77.7314 39.3227 75.7684 39.6532 73.4485 39.6532ZM87.5946 28.7073V28.2735C87.5946 26.635 87.8278 25.1274 88.2946 23.7507C88.7614 22.36 89.4408 21.1552 90.3331 20.1364C91.2255 19.1175 92.3236 18.3259 93.6277 17.7613C94.9318 17.1831 96.4281 16.8939 98.1165 16.8939C99.8051 16.8939 101.308 17.1831 102.626 17.7613C103.944 18.3259 105.049 19.1175 105.941 20.1364C106.847 21.1552 107.534 22.36 108 23.7507C108.467 25.1274 108.7 26.635 108.7 28.2735V28.7073C108.7 30.3319 108.467 31.8395 108 33.2302C107.534 34.607 106.847 35.8118 105.941 36.8444C105.049 37.8632 103.951 38.655 102.647 39.2195C101.342 39.784 99.8462 40.0662 98.1578 40.0662C96.4692 40.0662 94.9661 39.784 93.6483 39.2195C92.3442 38.655 91.2392 37.8632 90.3331 36.8444C89.4408 35.8118 88.7614 34.607 88.2946 33.2302C87.8278 31.8395 87.5946 30.3319 87.5946 28.7073ZM93.5248 28.2735V28.7073C93.5248 29.6435 93.607 30.5177 93.7718 31.3301C93.9365 32.1425 94.1974 32.8585 94.5543 33.478C94.9249 34.0839 95.4053 34.5588 95.9957 34.903C96.586 35.2473 97.3066 35.4194 98.1578 35.4194C98.9814 35.4194 99.6883 35.2473 100.279 34.903C100.869 34.5588 101.342 34.0839 101.699 33.478C102.056 32.8585 102.317 32.1425 102.482 31.3301C102.66 30.5177 102.75 29.6435 102.75 28.7073V28.2735C102.75 27.3648 102.66 26.5112 102.482 25.7126C102.317 24.9002 102.049 24.1844 101.679 23.5647C101.322 22.9314 100.848 22.4358 100.258 22.0777C99.6677 21.7198 98.9539 21.5408 98.1165 21.5408C97.2792 21.5408 96.5653 21.7198 95.975 22.0777C95.3985 22.4358 94.9249 22.9314 94.5543 23.5647C94.1974 24.1844 93.9365 24.9002 93.7718 25.7126C93.607 26.5112 93.5248 27.3648 93.5248 28.2735ZM111.398 28.7073V28.2735C111.398 26.635 111.631 25.1274 112.098 23.7507C112.565 22.36 113.244 21.1552 114.136 20.1364C115.029 19.1175 116.127 18.3259 117.431 17.7613C118.735 17.1831 120.231 16.8939 121.92 16.8939C123.608 16.8939 125.111 17.1831 126.429 17.7613C127.747 18.3259 128.852 19.1175 129.744 20.1364C130.65 21.1552 131.337 22.36 131.804 23.7507C132.271 25.1274 132.504 26.635 132.504 28.2735V28.7073C132.504 30.3319 132.271 31.8395 131.804 33.2302C131.337 34.607 130.65 35.8118 129.744 36.8444C128.852 37.8632 127.754 38.655 126.45 39.2195C125.146 39.784 123.649 40.0662 121.961 40.0662C120.273 40.0662 118.769 39.784 117.452 39.2195C116.147 38.655 115.042 37.8632 114.136 36.8444C113.244 35.8118 112.565 34.607 112.098 33.2302C111.631 31.8395 111.398 30.3319 111.398 28.7073ZM117.328 28.2735V28.7073C117.328 29.6435 117.41 30.5177 117.575 31.3301C117.74 32.1425 118.001 32.8585 118.358 33.478C118.728 34.0839 119.209 34.5588 119.799 34.903C120.389 35.2473 121.11 35.4194 121.961 35.4194C122.785 35.4194 123.492 35.2473 124.082 34.903C124.672 34.5588 125.146 34.0839 125.503 33.478C125.86 32.8585 126.12 32.1425 126.285 31.3301C126.464 30.5177 126.553 29.6435 126.553 28.7073V28.2735C126.553 27.3648 126.464 26.5112 126.285 25.7126C126.12 24.9002 125.853 24.1844 125.482 23.5647C125.125 22.9314 124.652 22.4358 124.061 22.0777C123.471 21.7198 122.757 21.5408 121.92 21.5408C121.082 21.5408 120.369 21.7198 119.778 22.0777C119.202 22.4358 118.728 22.9314 118.358 23.5647C118.001 24.1844 117.74 24.9002 117.575 25.7126C117.41 26.5112 117.328 27.3648 117.328 28.2735ZM148.194 33.478C148.194 33.0512 148.07 32.6656 147.824 32.3214C147.576 31.9772 147.116 31.6605 146.444 31.3715C145.785 31.0685 144.831 30.7932 143.582 30.5454C142.456 30.2975 141.406 29.9877 140.431 29.6159C139.47 29.2305 138.633 28.7692 137.919 28.2323C137.219 27.6952 136.669 27.062 136.272 26.3322C135.874 25.5887 135.675 24.742 135.675 23.7919C135.675 22.8557 135.874 21.9745 136.272 21.1484C136.684 20.3223 137.266 19.5925 138.022 18.9593C138.791 18.3121 139.724 17.8096 140.822 17.4515C141.934 17.0798 143.184 16.8939 144.57 16.8939C146.506 16.8939 148.166 17.2037 149.553 17.8233C150.953 18.4428 152.024 19.2966 152.765 20.3843C153.521 21.4582 153.897 22.6836 153.897 24.0604H147.967C147.967 23.4821 147.845 22.9658 147.597 22.5114C147.364 22.0433 146.993 21.6784 146.485 21.4168C145.991 21.1415 145.346 21.0038 144.55 21.0038C143.891 21.0038 143.321 21.1209 142.841 21.3548C142.36 21.5752 141.99 21.8781 141.729 22.2637C141.481 22.6354 141.358 23.0484 141.358 23.5027C141.358 23.847 141.427 24.1567 141.564 24.4322C141.714 24.6938 141.955 24.9347 142.285 25.1549C142.614 25.3753 143.04 25.5819 143.562 25.7746C144.097 25.9535 144.756 26.1188 145.538 26.2702C147.144 26.6007 148.579 27.0344 149.841 27.5714C151.104 28.0945 152.107 28.8105 152.847 29.7193C153.589 30.6142 153.959 31.7914 153.959 33.2508C153.959 34.2421 153.739 35.1509 153.3 35.9771C152.862 36.8032 152.23 37.5259 151.407 38.1456C150.583 38.7513 149.595 39.2264 148.442 39.5706C147.302 39.901 146.018 40.0662 144.591 40.0662C142.518 40.0662 140.76 39.6944 139.32 38.951C137.891 38.2074 136.807 37.2643 136.066 36.1215C135.338 34.965 134.975 33.7809 134.975 32.5693H140.597C140.623 33.3816 140.83 34.0356 141.213 34.5313C141.611 35.027 142.113 35.3849 142.717 35.6052C143.335 35.8256 144.001 35.9357 144.714 35.9357C145.483 35.9357 146.121 35.8325 146.63 35.6259C147.137 35.4057 147.522 35.1164 147.783 34.7585C148.057 34.3867 148.194 33.9599 148.194 33.478ZM168.723 17.307V21.5201H155.752V17.307H168.723ZM158.963 11.7927H164.893V32.9203C164.893 33.5675 164.976 34.0631 165.14 34.4073C165.319 34.7516 165.58 34.9926 165.923 35.1302C166.267 35.2542 166.699 35.3162 167.221 35.3162C167.591 35.3162 167.921 35.3023 168.209 35.2748C168.511 35.2334 168.764 35.1922 168.971 35.1509L168.991 39.5292C168.483 39.6944 167.934 39.8253 167.343 39.9216C166.753 40.018 166.102 40.0662 165.388 40.0662C164.083 40.0662 162.944 39.8528 161.969 39.426C161.008 38.9854 160.268 38.2831 159.746 37.3194C159.224 36.3556 158.963 35.089 158.963 33.5194V11.7927Z" fill="#F6F6F6"/>
</svg>
