<svg width="14" height="14" viewBox="0 0 14 14" fill="none" xmlns="http://www.w3.org/2000/svg">
<g clip-path="url(#clip0_601_183)">
<path d="M13.2501 9.35994L9.36007 13.2499C9.21944 13.3904 9.02882 13.4693 8.83007 13.4693C8.63132 13.4693 8.44069 13.3904 8.30007 13.2499L1.79007 6.73994C1.75128 6.70286 1.72127 6.65757 1.70223 6.6074C1.6832 6.55722 1.67563 6.50343 1.68007 6.44994L2.27007 2.60994C2.27695 2.52206 2.31498 2.43952 2.37731 2.37719C2.43964 2.31485 2.52218 2.27682 2.61007 2.26994L6.45007 1.67994C6.50355 1.67551 6.55734 1.68308 6.60752 1.70211C6.6577 1.72114 6.70298 1.75115 6.74007 1.78994L13.2501 8.29994C13.3905 8.44057 13.4694 8.63119 13.4694 8.82994C13.4694 9.0287 13.3905 9.21932 13.2501 9.35994V9.35994Z" stroke="#F6F6F6" stroke-linecap="round" stroke-linejoin="round"/>
<path d="M4.03003 4.03003L0.530029 0.530029" stroke="#F6F6F6" stroke-linecap="round" stroke-linejoin="round"/>
</g>
<defs>
<clipPath id="clip0_601_183">
<rect width="14" height="14" fill="white"/>
</clipPath>
</defs>
</svg>
