<svg width="83" height="88" viewBox="0 0 83 88" fill="none" xmlns="http://www.w3.org/2000/svg">
<path d="M75.958 88.0002H6.29207C5.03083 88.0002 4.0105 86.9804 4.0105 85.7199V32.6235C4.0105 31.363 5.03083 30.3433 6.29207 30.3433H75.958C77.2192 30.3433 78.2396 31.363 78.2396 32.6235V85.7199C78.2396 86.9804 77.2192 88.0002 75.958 88.0002Z" fill="#5444D2"/>
<path d="M79.9684 38.4442H2.28157C1.02033 38.4442 0 37.4245 0 36.164V18.1913C0 16.9309 1.02033 15.9111 2.28157 15.9111H79.9684C81.2297 15.9111 82.25 16.9309 82.25 18.1913V36.164C82.25 37.4245 81.2297 38.4442 79.9684 38.4442Z" fill="#423795"/>
<path d="M43.3499 17.554H40.5157C38.1774 17.554 36.2643 15.6562 36.2643 13.3052V12.4271C36.2643 10.0902 38.1632 8.17822 40.5157 8.17822H43.3499C45.6882 8.17822 47.6013 10.076 47.6013 12.4271V13.3052C47.6013 15.6562 45.7023 17.554 43.3499 17.554Z" fill="#221E41"/>
<path d="M51.0449 38.4443H31.1626V88.0001H51.0449V38.4443Z" fill="#221E41"/>
<path d="M52.8163 15.9111H29.3912V38.4442H52.8163V15.9111Z" fill="#221E41"/>
<path d="M39.3536 10.1894L26.6986 2.01744C20.4491 -2.01897 12.2014 2.47065 12.2014 9.90614C12.2014 13.2202 14.894 15.9112 18.21 15.9112H38.0073C39.3819 15.9112 40.5014 14.7923 40.5014 13.4185V12.2713C40.4873 11.4357 40.0621 10.6426 39.3536 10.1894ZM32.0979 13.1636H21.1435C19.8114 13.1636 18.7344 12.0872 18.7344 10.7559C18.7344 6.39375 23.5668 3.77363 27.223 6.13882L33.1607 9.97695C33.8126 10.3877 34.1244 11.195 33.8693 11.9739C33.6284 12.7104 32.8773 13.1636 32.0979 13.1636Z" fill="#221E41"/>
<path d="M42.9672 12.2855V13.4327C42.9672 14.8065 44.0868 15.9253 45.4614 15.9253H65.2586C68.5747 15.9253 71.2672 13.2344 71.2672 9.9203C71.2672 2.48481 63.0196 -2.00481 56.77 2.0316L44.1009 10.1894C43.3924 10.6426 42.9672 11.4357 42.9672 12.2855ZM49.5852 11.9739C49.3443 11.195 49.6561 10.3877 50.2938 9.97695L56.2315 6.13882C59.8877 3.77363 64.7201 6.40791 64.7201 10.7559C64.7201 12.0872 63.6431 13.1636 62.311 13.1636H51.3566C50.5772 13.1636 49.8119 12.7104 49.5852 11.9739Z" fill="#221E41"/>
</svg>
