<svg width="180" height="32" viewBox="0 0 180 32" fill="none" xmlns="http://www.w3.org/2000/svg">
<path d="M16 0L19.5922 11.0557H31.2169L21.8123 17.8885L25.4046 28.9443L16 22.1115L6.59544 28.9443L10.1877 17.8885L0.783095 11.0557H12.4078L16 0Z" fill="#FABB05"/>
<path d="M53 0L56.5922 11.0557H68.2169L58.8123 17.8885L62.4046 28.9443L53 22.1115L43.5954 28.9443L47.1877 17.8885L37.7831 11.0557H49.4078L53 0Z" fill="#FABB05"/>
<path d="M90 0L93.5922 11.0557H105.217L95.8123 17.8885L99.4046 28.9443L90 22.1115L80.5954 28.9443L84.1877 17.8885L74.7831 11.0557H86.4078L90 0Z" fill="#FABB05"/>
<path d="M127 0L130.592 11.0557H142.217L132.812 17.8885L136.405 28.9443L127 22.1115L117.595 28.9443L121.188 17.8885L111.783 11.0557H123.408L127 0Z" fill="#FABB05"/>
<path d="M164 0L167.592 11.0557H179.217L169.812 17.8885L173.405 28.9443L164 22.1115L154.595 28.9443L158.188 17.8885L148.783 11.0557H160.408L164 0Z" fill="#FABB05"/>
</svg>
