<svg width="24" height="25" viewBox="0 0 24 25" fill="none" xmlns="http://www.w3.org/2000/svg">
<g clip-path="url(#clip0_35_2203)">
<path d="M3.12001 12.9708H17.1429L18.8571 4.39941H1.71429C1.58893 4.39987 1.46519 4.42783 1.3518 4.4813C1.23842 4.53478 1.13814 4.61248 1.05804 4.70892C0.977947 4.80536 0.919981 4.9182 0.888233 5.03948C0.856484 5.16076 0.851725 5.28753 0.874292 5.41084L2.28001 12.268C2.3128 12.4662 2.41558 12.6462 2.5697 12.7751C2.72382 12.9041 2.91907 12.9735 3.12001 12.9708V12.9708Z" stroke="#F6F6F6" stroke-width="2" stroke-linecap="round" stroke-linejoin="round"/>
<path d="M18.8571 4.3994L19.5771 1.65654C19.6166 1.46293 19.7218 1.28893 19.8749 1.16397C20.028 1.03902 20.2195 0.970785 20.4171 0.970825H23.1428" stroke="#F6F6F6" stroke-width="2" stroke-linecap="round" stroke-linejoin="round"/>
<path d="M17.1429 12.9708L16.4229 16.5708C16.3834 16.7644 16.2782 16.9384 16.1251 17.0634C15.972 17.1883 15.7805 17.2566 15.5829 17.2565H5.14288" stroke="#F6F6F6" stroke-width="2" stroke-linecap="round" stroke-linejoin="round"/>
<path d="M6.00003 23.2565C6.47341 23.2565 6.85717 22.8728 6.85717 22.3994C6.85717 21.926 6.47341 21.5422 6.00003 21.5422C5.52664 21.5422 5.14288 21.926 5.14288 22.3994C5.14288 22.8728 5.52664 23.2565 6.00003 23.2565Z" stroke="#F6F6F6" stroke-width="2" stroke-linecap="round" stroke-linejoin="round"/>
<path d="M14.5714 23.2565C15.0448 23.2565 15.4286 22.8728 15.4286 22.3994C15.4286 21.926 15.0448 21.5422 14.5714 21.5422C14.0981 21.5422 13.7143 21.926 13.7143 22.3994C13.7143 22.8728 14.0981 23.2565 14.5714 23.2565Z" stroke="#F6F6F6" stroke-width="2" stroke-linecap="round" stroke-linejoin="round"/>
</g>
<defs>
<clipPath id="clip0_35_2203">
<rect width="24" height="24" fill="white" transform="translate(0 0.113647)"/>
</clipPath>
</defs>
</svg>
